<svg xmlns="http://www.w3.org/2000/svg" xmlns:lucid="lucid" width="656.7" height="656.7"><g transform="translate(-351.65071845410034 -2260)" lucid:page-tab-id="p9n2VvucjLGo"><path d="M639.65 2680c-1.66 0-2.5-1.24-1.85-2.77l102.4-247.46c.64-1.53 2.5-2.77 4.15-2.77h79c1.66 0 2.5 1.25 1.9 2.8l-97.5 247.4c-.6 1.55-2.44 2.8-4.1 2.8zM459.35 2759.5c-1.66 0-2.67-1.3-2.26-2.9l83.5-326.7c.42-1.6 2.1-2.9 3.75-2.9h79c1.66 0 2.67 1.3 2.26 2.9l-83.5 326.7c-.42 1.6-2.1 2.9-3.75 2.9z" stroke="#5e5e5e" stroke-width="3" fill="#0c7cba"/><path d="M745.35 2560.5c0-1.66 1.34-3 3-3h157c1.66 0 3 1.34 3 3v64c0 1.66-1.34 3-3 3h-157c-1.66 0-3-1.34-3-3z" stroke="#ccc" stroke-width="3" fill="url(#a)" transform="matrix(-1,1.2246467991473532e-16,-1.2246467991473532e-16,-1,1653.6985630917993,5184.999999999999)"/><path d="M750 2537.15c0-1.66-.95-2.05-2.12-.88l-54.1 54.1c-1.18 1.18-1.18 3.08 0 4.25l54.1 54.1c1.17 1.18 2.12.8 2.12-.87zM895.22 2682.63c0 1.66.95 2.05 2.12.88l88.9-88.88c1.16-1.17 1.16-3.07 0-4.24l-88.9-88.9c-1.17-1.16-2.12-.77-2.12.9z" stroke="#ccc" stroke-width="3" fill="#e5e5e5"/><path d="M819.35 2759.5c-1.66 0-3.3-1.3-3.66-2.93L742 2429.93c-.36-1.62.7-2.93 2.35-2.93h79c1.66 0 3.3 1.3 3.7 2.92l78.6 326.66c.4 1.6-.64 2.92-2.3 2.92z" stroke="#5e5e5e" stroke-width="3" fill="#3aa6dd"/><path d="M451.65 2560.5c0-1.66 1.34-3 3-3h157c1.66 0 3 1.34 3 3v64c0 1.66-1.34 3-3 3h-157c-1.66 0-3-1.34-3-3z" stroke="#ccc" stroke-width="3" fill="url(#b)"/><path d="M610 2647.85c0 1.66.95 2.05 2.12.88l54.1-54.1c1.18-1.18 1.18-3.08 0-4.25l-54.1-54.1c-1.17-1.18-2.12-.8-2.12.87z" stroke="#fff" stroke-width="3" fill="#e5e5e5"/><path d="M464.78 2502.37c0-1.66-.95-2.05-2.12-.88l-88.9 88.88c-1.16 1.17-1.16 3.07 0 4.24l88.9 88.9c1.17 1.16 2.12.77 2.12-.9z" stroke="#ccc" stroke-width="3" fill="#e5e5e5"/><path d="M598.5 2409.5c0-1.66 1.34-3 3-3h157c1.66 0 3 1.34 3 3v64c0 1.66-1.34 3-3 3h-157c-1.66 0-3-1.34-3-3z" stroke="#ccc" stroke-width="3" fill="url(#c)" transform="matrix(6.123233995736766e-17,1,-1,6.123233995736766e-17,3121.5,1761.4999999999998)"/><path d="M624.65 2518.35c-1.66 0-2.05.95-.88 2.12l54.1 54.1c1.18 1.18 3.08 1.18 4.25 0l54.1-54.1c1.18-1.17.8-2.12-.87-2.12zM770.13 2373.13c1.66 0 2.05-.95.88-2.12l-88.88-88.88c-1.17-1.17-3.07-1.17-4.24 0l-88.9 88.9c-1.16 1.16-.77 2.1.9 2.1z" stroke="#ccc" stroke-width="3" fill="#e5e5e5"/><path d="M639.65 2680c-1.66 0-3.47-1.26-4.06-2.8l-93.2-247.4c-.58-1.54.3-2.8 1.95-2.8h79c1.66 0 3.5 1.25 4.1 2.8l98.1 247.4c.6 1.55-.24 2.8-1.9 2.8z" stroke="#5e5e5e" stroke-width="3" fill="#3aa6dd"/><path d="M615 2719.7c0-1.67 1.33-3 3-3h124c1.67 0 3 1.33 3 3v64c0 1.64-1.33 3-3 3H618c-1.67 0-3-1.36-3-3z" stroke="#ccc" stroke-width="3" fill="url(#d)" transform="matrix(6.123233995736766e-17,-1,1,6.123233995736766e-17,-2071.687474503023,3431.687474503023)"/><path d="M589.87 2803.57c-1.66 0-2.05.95-.88 2.12l88.88 88.88c1.17 1.17 3.07 1.17 4.24 0l88.9-88.9c1.16-1.16.77-2.1-.9-2.1z" stroke="#ccc" stroke-width="3" fill="#e5e5e5"/><defs><linearGradient gradientUnits="userSpaceOnUse" id="a" x1="745.35" y1="2627.5" x2="908.35" y2="2627.5"><stop offset="0%" stop-color="#e5e5e5"/><stop offset="47.37%" stop-color="#b2b2b2"/><stop offset="100%" stop-color="#e5e5e5"/></linearGradient><linearGradient gradientUnits="userSpaceOnUse" id="b" x1="451.65" y1="2627.5" x2="614.65" y2="2627.5"><stop offset="0%" stop-color="#e5e5e5"/><stop offset="47.37%" stop-color="#b2b2b2"/><stop offset="100%" stop-color="#e5e5e5"/></linearGradient><linearGradient gradientUnits="userSpaceOnUse" id="c" x1="598.5" y1="2476.5" x2="761.5" y2="2476.5"><stop offset="0%" stop-color="#e5e5e5"/><stop offset="47.37%" stop-color="#b2b2b2"/><stop offset="100%" stop-color="#e5e5e5"/></linearGradient><linearGradient gradientUnits="userSpaceOnUse" id="d" x1="614.99" y1="2786.69" x2="745.01" y2="2786.69"><stop offset="0%" stop-color="#e5e5e5"/><stop offset="47.37%" stop-color="#b2b2b2"/><stop offset="100%" stop-color="#e5e5e5"/></linearGradient></defs></g></svg>