<?xml version="1.0" encoding="UTF-8" standalone="no"?>
<svg
   xmlns:lucid="lucid"
   xmlns:dc="http://purl.org/dc/elements/1.1/"
   xmlns:cc="http://creativecommons.org/ns#"
   xmlns:rdf="http://www.w3.org/1999/02/22-rdf-syntax-ns#"
   xmlns:svg="http://www.w3.org/2000/svg"
   xmlns="http://www.w3.org/2000/svg"
   xmlns:sodipodi="http://sodipodi.sourceforge.net/DTD/sodipodi-0.dtd"
   xmlns:inkscape="http://www.inkscape.org/namespaces/inkscape"
   width="47.023624"
   height="47.021313"
   version="1.1"
   id="svg58"
   sodipodi:docname="light-arrows-small.svg"
   inkscape:version="1.0.1 (3bc2e813f5, 2020-09-07)">
  <metadata
     id="metadata64">
    <rdf:RDF>
      <cc:Work
         rdf:about="">
        <dc:format>image/svg+xml</dc:format>
        <dc:type
           rdf:resource="http://purl.org/dc/dcmitype/StillImage" />
        <dc:title></dc:title>
      </cc:Work>
    </rdf:RDF>
  </metadata>
  <defs
     id="defs62" />
  <sodipodi:namedview
     pagecolor="#ffffff"
     bordercolor="#666666"
     borderopacity="1"
     objecttolerance="10"
     gridtolerance="10"
     guidetolerance="10"
     inkscape:pageopacity="0"
     inkscape:pageshadow="2"
     inkscape:window-width="1751"
     inkscape:window-height="1390"
     id="namedview60"
     showgrid="false"
     fit-margin-top="0"
     fit-margin-left="0"
     fit-margin-right="0"
     fit-margin-bottom="0"
     inkscape:zoom="6.1397897"
     inkscape:cx="7.2697063"
     inkscape:cy="16.840199"
     inkscape:window-x="0"
     inkscape:window-y="0"
     inkscape:window-maximized="0"
     inkscape:current-layer="svg58" />
  <g
     transform="matrix(0.07618766,0,0,0.07618766,-28.295796,-173.68967)"
     lucid:page-tab-id="p9n2VvucjLGo"
     id="g56">
    <path
       d="m 639.65,2680 c -1.66,0 -2.5,-1.24 -1.85,-2.77 l 102.4,-247.46 c 0.64,-1.53 2.5,-2.77 4.15,-2.77 h 79 c 1.66,0 2.5,1.25 1.9,2.8 l -97.5,247.4 c -0.6,1.55 -2.44,2.8 -4.1,2.8 z m -180.3,79.5 c -1.66,0 -2.67,-1.3 -2.26,-2.9 l 83.5,-326.7 c 0.42,-1.6 2.1,-2.9 3.75,-2.9 h 79 c 1.66,0 2.67,1.3 2.26,2.9 l -83.5,326.7 c -0.42,1.6 -2.1,2.9 -3.75,2.9 z"
       stroke="#5e5e5e"
       stroke-width="3"
       fill="#0c7cba"
       id="path2" />
    <path
       d="m 745.35,2560.5 c 0,-1.66 1.34,-3 3,-3 h 157 c 1.66,0 3,1.34 3,3 v 64 c 0,1.66 -1.34,3 -3,3 h -157 c -1.66,0 -3,-1.34 -3,-3 z"
       stroke="#cccccc"
       stroke-width="3"
       fill="url(#a)"
       transform="rotate(180,826.84928,2592.5)"
       id="path4"
       style="fill:url(#a)" />
    <path
       d="m 750,2537.15 c 0,-1.66 -0.95,-2.05 -2.12,-0.88 l -54.1,54.1 c -1.18,1.18 -1.18,3.08 0,4.25 l 54.1,54.1 c 1.17,1.18 2.12,0.8 2.12,-0.87 z m 145.22,145.48 c 0,1.66 0.95,2.05 2.12,0.88 l 88.9,-88.88 c 1.16,-1.17 1.16,-3.07 0,-4.24 l -88.9,-88.9 c -1.17,-1.16 -2.12,-0.77 -2.12,0.9 z"
       stroke="#cccccc"
       stroke-width="3"
       fill="#e5e5e5"
       id="path6" />
    <path
       d="m 819.35,2759.5 c -1.66,0 -3.3,-1.3 -3.66,-2.93 L 742,2429.93 c -0.36,-1.62 0.7,-2.93 2.35,-2.93 h 79 c 1.66,0 3.3,1.3 3.7,2.92 l 78.6,326.66 c 0.4,1.6 -0.64,2.92 -2.3,2.92 z"
       stroke="#5e5e5e"
       stroke-width="3"
       fill="#3aa6dd"
       id="path8" />
    <path
       d="m 451.65,2560.5 c 0,-1.66 1.34,-3 3,-3 h 157 c 1.66,0 3,1.34 3,3 v 64 c 0,1.66 -1.34,3 -3,3 h -157 c -1.66,0 -3,-1.34 -3,-3 z"
       stroke="#cccccc"
       stroke-width="3"
       fill="url(#b)"
       id="path10"
       style="fill:url(#b)" />
    <path
       d="m 610,2647.85 c 0,1.66 0.95,2.05 2.12,0.88 l 54.1,-54.1 c 1.18,-1.18 1.18,-3.08 0,-4.25 l -54.1,-54.1 c -1.17,-1.18 -2.12,-0.8 -2.12,0.87 z"
       stroke="#ffffff"
       stroke-width="3"
       fill="#e5e5e5"
       id="path12" />
    <path
       d="m 464.78,2502.37 c 0,-1.66 -0.95,-2.05 -2.12,-0.88 l -88.9,88.88 c -1.16,1.17 -1.16,3.07 0,4.24 l 88.9,88.9 c 1.17,1.16 2.12,0.77 2.12,-0.9 z"
       stroke="#cccccc"
       stroke-width="3"
       fill="#e5e5e5"
       id="path14" />
    <path
       d="m 598.5,2409.5 c 0,-1.66 1.34,-3 3,-3 h 157 c 1.66,0 3,1.34 3,3 v 64 c 0,1.66 -1.34,3 -3,3 h -157 c -1.66,0 -3,-1.34 -3,-3 z"
       stroke="#cccccc"
       stroke-width="3"
       fill="url(#c)"
       transform="rotate(90,680,2441.5)"
       id="path16"
       style="fill:url(#c)" />
    <path
       d="m 624.65,2518.35 c -1.66,0 -2.05,0.95 -0.88,2.12 l 54.1,54.1 c 1.18,1.18 3.08,1.18 4.25,0 l 54.1,-54.1 c 1.18,-1.17 0.8,-2.12 -0.87,-2.12 z m 145.48,-145.22 c 1.66,0 2.05,-0.95 0.88,-2.12 l -88.88,-88.88 c -1.17,-1.17 -3.07,-1.17 -4.24,0 l -88.9,88.9 c -1.16,1.16 -0.77,2.1 0.9,2.1 z"
       stroke="#cccccc"
       stroke-width="3"
       fill="#e5e5e5"
       id="path18" />
    <path
       d="m 639.65,2680 c -1.66,0 -3.47,-1.26 -4.06,-2.8 l -93.2,-247.4 c -0.58,-1.54 0.3,-2.8 1.95,-2.8 h 79 c 1.66,0 3.5,1.25 4.1,2.8 l 98.1,247.4 c 0.6,1.55 -0.24,2.8 -1.9,2.8 z"
       stroke="#5e5e5e"
       stroke-width="3"
       fill="#3aa6dd"
       id="path20" />
    <path
       d="m 615,2719.7 c 0,-1.67 1.33,-3 3,-3 h 124 c 1.67,0 3,1.33 3,3 v 64 c 0,1.64 -1.33,3 -3,3 H 618 c -1.67,0 -3,-1.36 -3,-3 z"
       stroke="#cccccc"
       stroke-width="3"
       fill="url(#d)"
       transform="rotate(-90,680,2751.6875)"
       id="path22"
       style="fill:url(#d)" />
    <path
       d="m 589.87,2803.57 c -1.66,0 -2.05,0.95 -0.88,2.12 l 88.88,88.88 c 1.17,1.17 3.07,1.17 4.24,0 l 88.9,-88.9 c 1.16,-1.16 0.77,-2.1 -0.9,-2.1 z"
       stroke="#cccccc"
       stroke-width="3"
       fill="#e5e5e5"
       id="path24" />
    <defs
       id="defs54">
      <linearGradient
         gradientUnits="userSpaceOnUse"
         id="a"
         x1="745.34998"
         y1="2627.5"
         x2="908.34998"
         y2="2627.5">
        <stop
           offset="0%"
           stop-color="#e5e5e5"
           id="stop26" />
        <stop
           offset="47.37%"
           stop-color="#b2b2b2"
           id="stop28" />
        <stop
           offset="100%"
           stop-color="#e5e5e5"
           id="stop30" />
      </linearGradient>
      <linearGradient
         gradientUnits="userSpaceOnUse"
         id="b"
         x1="451.64999"
         y1="2627.5"
         x2="614.65002"
         y2="2627.5">
        <stop
           offset="0%"
           stop-color="#e5e5e5"
           id="stop33" />
        <stop
           offset="47.37%"
           stop-color="#b2b2b2"
           id="stop35" />
        <stop
           offset="100%"
           stop-color="#e5e5e5"
           id="stop37" />
      </linearGradient>
      <linearGradient
         gradientUnits="userSpaceOnUse"
         id="c"
         x1="598.5"
         y1="2476.5"
         x2="761.5"
         y2="2476.5">
        <stop
           offset="0%"
           stop-color="#e5e5e5"
           id="stop40" />
        <stop
           offset="47.37%"
           stop-color="#b2b2b2"
           id="stop42" />
        <stop
           offset="100%"
           stop-color="#e5e5e5"
           id="stop44" />
      </linearGradient>
      <linearGradient
         gradientUnits="userSpaceOnUse"
         id="d"
         x1="614.98999"
         y1="2786.6899"
         x2="745.01001"
         y2="2786.6899">
        <stop
           offset="0%"
           stop-color="#e5e5e5"
           id="stop47" />
        <stop
           offset="47.37%"
           stop-color="#b2b2b2"
           id="stop49" />
        <stop
           offset="100%"
           stop-color="#e5e5e5"
           id="stop51" />
      </linearGradient>
    </defs>
  </g>
</svg>
