<svg xmlns="http://www.w3.org/2000/svg" xmlns:lucid="lucid" width="656.7" height="656.7"><g transform="translate(-351.6507184541003 -551.6507184541002)" lucid:page-tab-id="UTb7P2ZR49J7"><path d="M639.65 971.65c-1.66 0-2.5-1.24-1.85-2.77l102.4-247.46c.64-1.53 2.5-2.77 4.15-2.77h79c1.66 0 2.5 1.25 1.9 2.8l-97.5 247.4c-.6 1.55-2.44 2.8-4.1 2.8zM459.35 1051.15c-1.66 0-2.67-1.3-2.26-2.9l83.5-326.7c.42-1.6 2.1-2.9 3.75-2.9h79c1.66 0 2.67 1.3 2.26 2.9l-83.5 326.7c-.42 1.6-2.1 2.9-3.75 2.9z" stroke="#5e5e5e" stroke-width="3" fill="#791009"/><path d="M745.35 852.15c0-1.66 1.34-3 3-3h157c1.66 0 3 1.34 3 3v64c0 1.66-1.34 3-3 3h-157c-1.66 0-3-1.34-3-3z" stroke="#333" stroke-width="3" fill="url(#a)" transform="matrix(-1,1.2246467991473532e-16,-1.2246467991473532e-16,-1,1653.6985630917993,1768.3014369081998)"/><path d="M750 828.8c0-1.66-.95-2.05-2.12-.88l-54.1 54.1c-1.18 1.18-1.18 3.08 0 4.25l54.1 54.1c1.17 1.18 2.12.8 2.12-.87zM895.22 974.28c0 1.66.95 2.05 2.12.88l88.9-88.9c1.16-1.16 1.16-3.06 0-4.23l-88.9-88.9c-1.17-1.16-2.12-.77-2.12.9z" stroke="#333" stroke-width="3" fill="#333"/><path d="M819.35 1051.15c-1.66 0-3.3-1.3-3.66-2.93L742 721.58c-.36-1.62.7-2.93 2.35-2.93h79c1.66 0 3.3 1.3 3.7 2.92l78.6 326.66c.4 1.6-.64 2.92-2.3 2.92z" stroke="#5e5e5e" stroke-width="3" fill="#b61400"/><path d="M451.65 852.15c0-1.66 1.34-3 3-3h157c1.66 0 3 1.34 3 3v64c0 1.66-1.34 3-3 3h-157c-1.66 0-3-1.34-3-3z" stroke="#333" stroke-width="3" fill="url(#b)"/><path d="M610 939.5c0 1.66.95 2.05 2.12.88l54.1-54.1c1.18-1.18 1.18-3.08 0-4.25l-54.1-54.1c-1.17-1.18-2.12-.8-2.12.87zM464.78 794.02c0-1.66-.95-2.05-2.12-.88l-88.9 88.9c-1.16 1.16-1.16 3.06 0 4.23l88.9 88.9c1.17 1.16 2.12.77 2.12-.9z" stroke="#333" stroke-width="3" fill="#333"/><path d="M598.5 701.15c0-1.66 1.34-3 3-3h157c1.66 0 3 1.34 3 3v64c0 1.66-1.34 3-3 3h-157c-1.66 0-3-1.34-3-3z" stroke="#333" stroke-width="3" fill="url(#c)" transform="matrix(6.123233995736766e-17,1,-1,6.123233995736766e-17,1413.1507184541003,53.1507184541003)"/><path d="M624.65 810c-1.66 0-2.05.95-.88 2.12l54.1 54.1c1.18 1.18 3.08 1.18 4.25 0l54.1-54.1c1.18-1.17.8-2.12-.87-2.12zM770.13 664.78c1.66 0 2.05-.95.88-2.12l-88.88-88.9c-1.17-1.16-3.07-1.16-4.24 0l-88.9 88.9c-1.16 1.17-.77 2.12.9 2.12z" stroke="#333" stroke-width="3" fill="#333"/><path d="M639.65 971.65c-1.66 0-3.47-1.26-4.06-2.8l-93.2-247.4c-.58-1.54.3-2.8 1.95-2.8h79c1.66 0 3.5 1.25 4.1 2.8l98.1 247.4c.6 1.55-.24 2.8-1.9 2.8z" stroke="#5e5e5e" stroke-width="3" fill="#b61400"/><path d="M615 1011.34c0-1.66 1.33-3 3-3h124c1.67 0 3 1.34 3 3v64c0 1.66-1.33 3-3 3H618c-1.67 0-3-1.34-3-3z" stroke="#333" stroke-width="3" fill="url(#d)" transform="matrix(6.123233995736766e-17,-1,1,6.123233995736766e-17,-363.3381929571236,1723.3381929571237)"/><path d="M589.87 1095.22c-1.66 0-2.05.95-.88 2.12l88.88 88.9c1.17 1.16 3.07 1.16 4.24 0l88.9-88.9c1.16-1.17.77-2.12-.9-2.12z" stroke="#333" stroke-width="3" fill="#333"/><defs><linearGradient gradientUnits="userSpaceOnUse" id="a" x1="745.35" y1="919.15" x2="908.35" y2="919.15"><stop offset="0%" stop-color="#333"/><stop offset="47.37%" stop-color="#5e5e5e"/><stop offset="100%" stop-color="#333"/></linearGradient><linearGradient gradientUnits="userSpaceOnUse" id="b" x1="451.65" y1="919.15" x2="614.65" y2="919.15"><stop offset="0%" stop-color="#333"/><stop offset="47.37%" stop-color="#5e5e5e"/><stop offset="100%" stop-color="#333"/></linearGradient><linearGradient gradientUnits="userSpaceOnUse" id="c" x1="598.5" y1="768.15" x2="761.5" y2="768.15"><stop offset="0%" stop-color="#333"/><stop offset="47.37%" stop-color="#5e5e5e"/><stop offset="100%" stop-color="#333"/></linearGradient><linearGradient gradientUnits="userSpaceOnUse" id="d" x1="614.99" y1="1078.34" x2="745.01" y2="1078.34"><stop offset="0%" stop-color="#333"/><stop offset="47.37%" stop-color="#5e5e5e"/><stop offset="100%" stop-color="#333"/></linearGradient></defs></g></svg>